<svg xmlns="http://www.w3.org/2000/svg" viewBox="0 0 204.16 60.24"><defs><style>.cls-1{fill:#fff;}</style></defs><g id="Layer_2" data-name="Layer 2"><g id="Layer_1-2" data-name="Layer 1"><path class="cls-1" d="M3.77,44.33a2.7,2.7,0,0,1-2.63-2.11l-1-4.51A6,6,0,0,1,1,33.12a6,6,0,0,1,3.82-2.68,6.11,6.11,0,0,1,7.27,4.63l1,4.52a2.65,2.65,0,0,1-.36,2A2.68,2.68,0,0,1,11,42.8l-1.15.33-.54-1.89,1.2-.35a.78.78,0,0,0,.52-.33.71.71,0,0,0,.09-.55l-1-4.51A4.14,4.14,0,0,0,5.2,32.36a4.16,4.16,0,0,0-3.14,4.92l1,4.52a.75.75,0,0,0,.87.55l1.18-.27L5.54,44l-1.18.27A3,3,0,0,1,3.77,44.33Z"/><path class="cls-1" d="M5,41.6a1.48,1.48,0,1,1-1.12,1.77A1.47,1.47,0,0,1,5,41.6Z"/><path class="cls-1" d="M9.17,40.77a1.47,1.47,0,0,0-1,1.83A1.48,1.48,0,1,0,11,41.77,1.47,1.47,0,0,0,9.17,40.77Z"/><path class="cls-1" d="M23.6,55.79A33.83,33.83,0,0,0,53.52,43c7.1-8.79,8.93-21.85,2.24-31.48l1.53-1.24a24.53,24.53,0,0,1,6.35,15.19,31.16,31.16,0,0,1-4.13,16.81c-.45.74-1.14,1.82-1.62,2.55-.73.92-1.47,2-2.25,2.84L54,49.44a32,32,0,0,1-21.47,9.65,25.36,25.36,0,0,1-9.37-1.38l.45-1.92Z"/><path class="cls-1" d="M55.76,11.52A25.09,25.09,0,0,0,45.28,5.15a27.19,27.19,0,0,0-8.06-1c-15.3.31-28.91,12.71-31.31,27.8l-2-.11C3.23,12.67,23.37-3.24,41.91.57a24.24,24.24,0,0,1,15.38,9.71l-1.53,1.24Z"/><path class="cls-1" d="M19.08,60.24a5,5,0,1,1,5-5A5,5,0,0,1,19.08,60.24Zm0-8.06a3.05,3.05,0,1,0,3.05,3A3.06,3.06,0,0,0,19.08,52.18Z"/><path class="cls-1" d="M19.08,57.4a2.18,2.18,0,1,1,2.17-2.17A2.18,2.18,0,0,1,19.08,57.4Zm0-3a.87.87,0,1,0,0,1.73.87.87,0,0,0,0-1.73Z"/><path class="cls-1" d="M48.6,23c2.94-4.07,1.32-13.52-.53-10.66-1.6,2.48-9.69,7.8-16.84,12.07,0,0,1.75-4.54,3.24-8.21s-5.22-2.13-9.11-.15c-.37.18-3.47,2.1-3.72,3.31,1.62-.28,2.57-.39,2.38,0l-.38.91c-1.19,2.81-2.79,6.64-4.41,10.43-3.73,10.36-1.86,15-1.86,15l10,.42s-2.5-1.06-1.44-6.76,2.58-6.45,2.91-6.57c.58,2.39,4.22,12.1,12.53,17.74,10,6.82,17,3.42,19.68.69s2.69-8.19,2.69-8.19-7.65,6.14-15.44.84C42.9,40.26,35.46,33.71,32.6,31.24c.49-.2,11-1.32,16-8.26"/><path class="cls-1" d="M75.36,14.37h7.43l-2.2,11h10l2.19-11h7.42L94.63,42.19H87.21L89.67,30h-10l-2.46,12.2H69.82Z"/><path class="cls-1" d="M120.45,40.34a48.89,48.89,0,0,1-5.72,1.71,23.34,23.34,0,0,1-5.21.6,11.64,11.64,0,0,1-3.19-.43,9.45,9.45,0,0,1-2.81-1.28,6.45,6.45,0,0,1-2-2.2,6.09,6.09,0,0,1-.75-3.06,13.61,13.61,0,0,1,1-4.9,17.34,17.34,0,0,1,2.91-4.87,14.24,14.24,0,0,1,4.71-3.65,13.94,13.94,0,0,1,6.23-1.39,7.45,7.45,0,0,1,2,.29,5.73,5.73,0,0,1,1.81.87,4.35,4.35,0,0,1,1.3,1.46,4,4,0,0,1,.5,2,6.84,6.84,0,0,1-1.19,3.9,10.43,10.43,0,0,1-3.17,3.06,16,16,0,0,1-4.29,1.94,15.82,15.82,0,0,1-4.43.68,2.88,2.88,0,0,0,1.08,2.36,4.33,4.33,0,0,0,2.7.79A10.87,10.87,0,0,0,114.2,38a22.28,22.28,0,0,0,2.55-.71,24.53,24.53,0,0,0,2.5-1c.8-.36,1.54-.72,2.24-1.08ZM113,30a3.21,3.21,0,0,0,1.54-2.9A1.38,1.38,0,0,0,113,25.49a2.68,2.68,0,0,0-1.59.54,5.24,5.24,0,0,0-1.31,1.38A9.83,9.83,0,0,0,108.68,31,8,8,0,0,0,113,30Z"/><path class="cls-1" d="M139.49,33.38H139a22.69,22.69,0,0,1-1.62,3,21.2,21.2,0,0,1-2.31,3,12,12,0,0,1-2.8,2.32,5.87,5.87,0,0,1-3,.89A4.2,4.2,0,0,1,125.83,41a6,6,0,0,1-1.3-3.84,14.41,14.41,0,0,1,1.13-5.35,20.69,20.69,0,0,1,3.12-5.31,17.06,17.06,0,0,1,4.5-4A9.86,9.86,0,0,1,138.41,21a18.86,18.86,0,0,1,2.66.23,5.46,5.46,0,0,0,.81.12h7l-4.16,20.85H137.3Zm1-7.54a4.8,4.8,0,0,0-2.39-.7,3.76,3.76,0,0,0-2.73,1.2,9.45,9.45,0,0,0-2,2.94,18.3,18.3,0,0,0-1.13,3.4,12.44,12.44,0,0,0-.37,2.54,1.7,1.7,0,0,0,.19.85.7.7,0,0,0,.66.35,2.32,2.32,0,0,0,1.4-.66,11.54,11.54,0,0,0,1.63-1.69c.57-.69,1.11-1.42,1.64-2.17s1.08-1.6,1.67-2.52l1-1.43Z"/><path class="cls-1" d="M156.42,12.53h7.38l-5.88,29.66h-7.43Z"/><path class="cls-1" d="M165.84,21.34h2.43l.65-3.27,7.62-1-.85,4.31h3.58l-.85,4.15h-3.58L173.15,34a11.3,11.3,0,0,0-.19,2c0,1.33.56,2,1.69,2a4.12,4.12,0,0,0,2.27-.84L176,41.72c-1.11.31-2.07.54-2.89.7a14.49,14.49,0,0,1-2.61.23,6.32,6.32,0,0,1-4-1.16,4,4,0,0,1-1.44-3.27,8.06,8.06,0,0,1,.14-1.38c.09-.51.2-1.1.32-1.77l1.89-9.58H165Z"/><path class="cls-1" d="M186.42,12.53h7.39L192,21.34l-2.19,8.81h.46a22,22,0,0,1,1.64-3,21.11,21.11,0,0,1,2.3-3A12,12,0,0,1,197,21.76a5.87,5.87,0,0,1,3-.89,3.88,3.88,0,0,1,3,1.23,4.46,4.46,0,0,1,1.12,3.12,13.21,13.21,0,0,1-.31,2.35c-.08.31-.13.52-.15.65l-2.81,14H193.5l2.58-13.08a1.34,1.34,0,0,1,.08-.35,4.11,4.11,0,0,0,.11-.69,1,1,0,0,0-.09-.43.36.36,0,0,0-.33-.19c-.31,0-.78.33-1.41,1a28.11,28.11,0,0,0-2,2.45c-.74,1-1.4,1.92-2,2.84a19.55,19.55,0,0,0-1.18,2l-1.31,6.51H180.5Z"/></g></g></svg>